<svg xmlns="http://www.w3.org/2000/svg" xmlns:xlink="http://www.w3.org/1999/xlink" width="500" zoomAndPan="magnify" viewBox="0 0 375 374.999991" height="500" preserveAspectRatio="xMidYMid meet" version="1.0"><defs><g/><clipPath id="0aea0e217d"><path d="M 52.5 0 L 322.5 0 C 336.425781 0 349.777344 5.53125 359.625 15.375 C 369.46875 25.222656 375 38.574219 375 52.5 L 375 322.5 C 375 336.425781 369.46875 349.777344 359.625 359.625 C 349.777344 369.46875 336.425781 375 322.5 375 L 52.5 375 C 38.574219 375 25.222656 369.46875 15.375 359.625 C 5.53125 349.777344 0 336.425781 0 322.5 L 0 52.5 C 0 38.574219 5.53125 25.222656 15.375 15.375 C 25.222656 5.53125 38.574219 0 52.5 0 " clip-rule="nonzero"/></clipPath></defs><g clip-path="url(#0aea0e217d)"><path fill="#cb6ce6" d="M 0 0 L 374.765625 0 L 374.765625 374.765625 L 0 374.765625 Z M 0 0 " fill-opacity="1" fill-rule="nonzero"/></g><g fill="#000000" fill-opacity="1"><g transform="translate(92.94531, 295.499981)"><g><path d="M 103.230469 -218.859375 L 15.5 -218.859375 L 15.5 0 L 68.507812 0 L 68.507812 -64.480469 L 103.230469 -64.480469 C 154.070312 -64.480469 179.488281 -103.230469 179.488281 -141.359375 C 179.488281 -179.488281 154.070312 -218.859375 103.230469 -218.859375 Z M 103.230469 -114.390625 L 68.507812 -114.390625 L 68.507812 -167.398438 L 103.230469 -167.398438 C 119.660156 -167.398438 127.71875 -153.449219 127.71875 -140.429688 C 127.71875 -127.71875 119.660156 -114.390625 103.230469 -114.390625 Z M 103.230469 -114.390625 "/></g></g></g></svg>